<svg xmlns="http://www.w3.org/2000/svg" height="20px" width="20px" viewBox="0 0 20 20">
<svg version="1.0" id="Layer_1" xmlns="http://www.w3.org/2000/svg" xmlns:xlink="http://www.w3.org/1999/xlink" x="0px" y="0px"
	 viewBox="0 0 24 24" enable-background="new 0 0 24 24" xml:space="preserve">
<g id="Layer_1_7_">
	<g id="Cancel__16_copy_3_18_">
		<path fill="#E3264D" d="M12,0C5.3,0,0,5.3,0,12s5.3,12,12,12s12-5.3,12-12S18.7,0,12,0z M12,22.3C6.3,22.3,1.7,17.7,1.7,12
			S6.3,1.7,12,1.7c5.7,0,10.3,4.6,10.3,10.3S17.7,22.3,12,22.3z"/>
	</g>
	<g>
		<polygon fill="#E3264D" points="16.3,17.5 12,13.2 7.7,17.5 6.5,16.3 10.8,12 6.5,7.7 7.7,6.5 12,10.8 16.3,6.5 17.5,7.7 13.2,12 
			17.5,16.3 		"/>
	</g>
</g>
</svg>
</svg>